<?xml version="1.0" encoding="UTF-8"?>
<!-- Generator: visioncortex VTracer 0.6.4 -->
<svg version="1.1" xmlns="http://www.w3.org/2000/svg" width="1174" height="407">
<path d="M0 0 C0.89 -0 1.78 -0.01 2.7 -0.01 C5.7 -0.02 8.69 -0.01 11.68 -0 C13.83 -0.01 15.97 -0.01 18.12 -0.02 C23.95 -0.02 29.79 -0.02 35.62 -0.01 C41.75 -0.01 47.88 -0.01 54.01 -0.02 C64.32 -0.02 74.63 -0.02 84.94 -0.01 C96.81 0 108.67 0 120.53 -0.01 C130.75 -0.02 140.96 -0.02 151.18 -0.02 C157.26 -0.01 163.35 -0.01 169.44 -0.02 C233.78 -0.08 233.78 -0.08 260.15 7.25 C260.15 7.91 260.15 8.57 260.15 9.25 C261.36 9.44 262.58 9.63 263.83 9.82 C270.46 11.28 276.56 14.45 282.15 18.25 C282.85 19.57 283.52 20.9 284.15 22.25 C286.05 23.39 286.05 23.39 288.15 24.25 C294.63 28.59 298.33 34.59 302.15 41.25 C302.62 42.07 303.1 42.89 303.59 43.73 C317.2 68.76 312.11 104.07 304.74 130.33 C303.03 135.86 300.64 141.05 298.15 146.25 C297.84 146.9 297.54 147.55 297.22 148.22 C291.87 159.58 286.21 170.38 277.15 179.25 C276.24 180.37 275.34 181.49 274.46 182.63 C271.31 186.38 267.6 188.91 263.51 191.58 C261.11 193.16 261.11 193.16 259.31 195.2 C256.39 197.97 253.14 199.65 249.58 201.5 C248.91 201.87 248.24 202.23 247.55 202.61 C242.53 205.25 242.53 205.25 239.15 205.25 C239.15 205.91 239.15 206.57 239.15 207.25 C232.88 209.56 226.61 211.87 220.15 214.25 C225.78 224.25 225.78 224.25 231.83 234 C234.53 238.16 236.75 242.39 238.9 246.86 C240.17 249.29 241.59 251.49 243.15 253.75 C251.15 265.38 251.15 265.38 251.15 270.25 C251.81 270.25 252.47 270.25 253.15 270.25 C253.52 270.92 253.89 271.58 254.28 272.27 C255.98 275.31 257.69 278.34 259.4 281.38 C259.98 282.43 260.57 283.47 261.17 284.55 C264.65 290.77 264.65 290.77 268.52 296.76 C270.57 299.91 270.93 302.53 271.15 306.25 C269.24 308.16 266.43 307.39 263.89 307.4 C262.99 307.4 262.09 307.4 261.16 307.4 C259.75 307.4 259.75 307.4 258.31 307.41 C255.17 307.42 252.03 307.42 248.89 307.42 C246.72 307.43 244.54 307.43 242.36 307.43 C237.79 307.44 233.21 307.44 228.64 307.44 C222.79 307.44 216.94 307.45 211.08 307.47 C206.58 307.48 202.08 307.48 197.58 307.48 C195.42 307.48 193.27 307.49 191.11 307.5 C188.08 307.51 185.06 307.5 182.03 307.5 C181.15 307.5 180.26 307.51 179.35 307.51 C173.96 307.49 169.29 306.92 164.15 305.25 C162.05 302.82 162.05 302.82 160.51 299.74 C159.92 298.6 159.33 297.46 158.72 296.29 C158.11 295.05 157.5 293.81 156.9 292.57 C156.25 291.29 155.6 290.02 154.95 288.75 C153.62 286.17 152.32 283.58 151.02 280.99 C148.82 276.58 146.52 272.23 144.22 267.87 C140.21 260.26 136.28 252.62 132.4 244.94 C132.06 244.28 131.72 243.62 131.38 242.95 C129.15 238.49 129.15 238.49 129.15 236.25 C128.49 236.25 127.83 236.25 127.15 236.25 C126.14 234.3 125.14 232.34 124.15 230.38 C123.31 228.74 123.31 228.74 122.46 227.07 C121.15 224.25 121.15 224.25 121.15 222.25 C90.79 222.58 60.43 222.91 29.15 223.25 C26.03 238.99 26.03 238.99 22.92 254.72 C20.62 266.32 18.16 277.82 15.15 289.25 C14.72 290.94 14.3 292.63 13.88 294.32 C12.97 297.96 12.06 301.61 11.15 305.25 C6.2 306.86 2.05 307.5 -3.2 307.5 C-3.9 307.5 -4.61 307.51 -5.34 307.51 C-7.68 307.51 -10.03 307.51 -12.37 307.5 C-14.06 307.5 -15.75 307.5 -17.44 307.5 C-22.02 307.51 -26.59 307.5 -31.16 307.49 C-35.95 307.48 -40.74 307.48 -45.53 307.48 C-53.57 307.48 -61.61 307.47 -69.65 307.46 C-78.94 307.44 -88.24 307.44 -97.54 307.44 C-106.48 307.44 -115.43 307.44 -124.37 307.43 C-128.18 307.42 -131.99 307.42 -135.79 307.42 C-140.27 307.42 -144.75 307.41 -149.23 307.4 C-150.87 307.4 -152.52 307.4 -154.16 307.4 C-156.41 307.4 -158.65 307.39 -160.89 307.39 C-162.15 307.39 -163.4 307.38 -164.7 307.38 C-169.61 307.18 -169.61 307.18 -171.85 306.25 C-174.44 300.86 -175.74 295.08 -177.23 289.31 C-178.46 284.59 -179.86 279.95 -181.35 275.32 C-183.14 269.73 -184.74 264.13 -186.17 258.44 C-186.42 257.43 -186.42 257.43 -186.69 256.39 C-187.37 253.6 -187.85 251.15 -187.85 248.25 C-209.66 247.99 -231.47 247.82 -253.29 247.76 C-263.41 247.74 -273.54 247.68 -283.67 247.54 C-292.5 247.43 -301.33 247.37 -310.16 247.39 C-314.84 247.39 -319.51 247.37 -324.18 247.27 C-344.28 245.83 -344.28 245.83 -362 252.99 C-365.51 257.02 -367.76 261.37 -369.85 266.25 C-371.89 269.86 -373.94 272.34 -376.85 275.25 C-378.4 277.4 -379.89 279.55 -381.35 281.75 C-383.92 285.61 -386.56 288.99 -389.85 292.25 C-391.99 295.03 -394.09 297.82 -396.14 300.65 C-398.48 303.77 -400.22 305.84 -403.85 307.25 C-406.1 307.5 -406.1 307.5 -408.59 307.49 C-409.54 307.5 -410.48 307.5 -411.46 307.5 C-412.49 307.5 -413.53 307.49 -414.59 307.48 C-416.23 307.48 -416.23 307.48 -417.9 307.48 C-421.52 307.48 -425.13 307.46 -428.74 307.45 C-431.25 307.45 -433.76 307.44 -436.26 307.44 C-442.18 307.43 -448.1 307.42 -454.03 307.4 C-461.43 307.37 -468.83 307.36 -476.24 307.35 C-489.44 307.33 -502.65 307.3 -515.85 307.25 C-516.51 305.93 -517.17 304.61 -517.85 303.25 C-516.94 302 -516.02 300.75 -515.1 299.5 C-514.34 298.46 -514.34 298.46 -513.56 297.39 C-511.85 295.25 -511.85 295.25 -509.87 293.3 C-507.7 291.1 -506.07 288.82 -504.35 286.25 C-502.09 282.87 -499.73 280.12 -496.85 277.25 C-495.24 275.23 -493.66 273.2 -492.1 271.13 C-491.22 269.96 -490.33 268.8 -489.44 267.63 C-489 267.06 -488.56 266.48 -488.11 265.89 C-483.63 260.06 -478.96 254.38 -474.29 248.69 C-471.6 245.41 -468.95 242.11 -466.35 238.75 C-463.69 235.3 -460.97 231.89 -458.23 228.5 C-457.52 227.62 -456.8 226.74 -456.07 225.83 C-453.85 223.25 -453.85 223.25 -451.27 220.74 C-448.92 218.33 -447.57 216.13 -445.85 213.25 C-443.65 210.42 -441.35 207.69 -439.04 204.94 C-434.96 200.07 -430.97 195.17 -427.21 190.04 C-425.37 187.62 -423.38 185.35 -421.37 183.06 C-419.14 180.41 -417.15 177.59 -415.15 174.76 C-414.72 174.26 -414.3 173.77 -413.85 173.25 C-413.19 173.25 -412.53 173.25 -411.85 173.25 C-411.48 172.45 -411.48 172.45 -411.1 171.63 C-408.03 165.8 -403.97 160.81 -399.79 155.75 C-398.63 154.34 -397.48 152.93 -396.32 151.51 C-395.74 150.8 -395.17 150.09 -394.57 149.36 C-391.95 146.14 -389.36 142.89 -386.79 139.63 C-386.35 139.07 -385.91 138.52 -385.46 137.95 C-383.42 135.36 -381.51 132.74 -379.69 129.99 C-377.85 127.25 -377.85 127.25 -375.6 125.07 C-372.16 121.54 -369.51 117.64 -366.72 113.58 C-364.85 111.25 -364.85 111.25 -361.85 110.25 C-361.16 108.6 -360.5 106.93 -359.85 105.25 C-358.58 103.44 -357.25 101.67 -355.85 99.94 C-355.15 99.06 -354.45 98.18 -353.73 97.27 C-352.8 96.27 -352.8 96.27 -351.85 95.25 C-351.19 95.25 -350.53 95.25 -349.85 95.25 C-349.61 94.53 -349.36 93.81 -349.11 93.07 C-347.71 89.93 -346.02 87.8 -343.79 85.19 C-340.47 81.24 -337.3 77.22 -334.23 73.07 C-331.17 68.94 -327.98 65.07 -324.55 61.26 C-321.96 58.19 -319.75 54.89 -317.53 51.55 C-315.81 49.2 -313.93 47.29 -311.85 45.25 C-310.83 44 -309.83 42.73 -308.85 41.44 C-305.61 37.22 -302.31 33.04 -298.98 28.88 C-298.2 27.91 -298.2 27.91 -297.41 26.92 C-293.57 22.12 -289.67 17.37 -285.75 12.63 C-284.08 10.54 -282.54 8.41 -281.04 6.19 C-278.88 3.28 -278.1 2.49 -274.85 1.25 C-272.48 1 -272.48 1 -269.8 1 C-268.27 0.99 -268.27 0.99 -266.71 0.98 C-265.6 0.99 -264.49 0.99 -263.34 1 C-261.58 0.99 -261.58 0.99 -259.78 0.98 C-256.56 0.98 -253.34 0.98 -250.11 0.99 C-246.74 0.99 -243.37 0.99 -240 0.98 C-234.34 0.98 -228.68 0.98 -223.02 0.99 C-216.48 1 -209.93 1 -203.39 0.99 C-197.77 0.98 -192.15 0.98 -186.53 0.98 C-183.17 0.99 -179.81 0.99 -176.46 0.98 C-172.72 0.98 -168.98 0.98 -165.24 1 C-164.12 0.99 -163.01 0.99 -161.86 0.98 C-160.85 0.99 -159.83 0.99 -158.78 1 C-157.9 1 -157.01 1 -156.1 1 C-153.85 1.25 -153.85 1.25 -150.85 3.25 C-149.96 6.06 -149.24 8.76 -148.59 11.62 C-148.4 12.45 -148.2 13.28 -148 14.14 C-147.59 15.9 -147.18 17.66 -146.78 19.42 C-146.17 22.11 -145.54 24.8 -144.91 27.49 C-144.51 29.2 -144.11 30.91 -143.72 32.62 C-143.53 33.43 -143.34 34.23 -143.15 35.06 C-142.36 38.57 -141.85 41.64 -141.85 45.25 C-141.19 45.25 -140.53 45.25 -139.85 45.25 C-139.72 45.84 -139.59 46.42 -139.46 47.02 C-138.08 53.1 -136.7 59.18 -135.32 65.27 C-134.8 67.53 -134.29 69.8 -133.78 72.07 C-133.04 75.34 -132.3 78.61 -131.55 81.88 C-131.33 82.88 -131.1 83.88 -130.87 84.92 C-129.68 90.09 -128.3 95.09 -126.56 100.11 C-125.39 103.68 -124.56 107.32 -123.73 110.99 C-123.55 111.79 -123.36 112.59 -123.17 113.41 C-122.39 116.78 -121.61 120.16 -120.84 123.53 C-118.17 135.23 -118.17 135.23 -114.85 146.75 C-112.15 155.21 -110.28 163.86 -108.29 172.5 C-107.52 175.84 -106.75 179.18 -105.98 182.52 C-105.81 183.26 -105.64 184.01 -105.46 184.77 C-104.6 188.5 -103.6 192.11 -102.36 195.73 C-100.82 200.21 -99.72 204.73 -98.7 209.35 C-98.51 210.18 -98.32 211.01 -98.13 211.87 C-97.33 215.38 -96.55 218.89 -95.76 222.41 C-95.18 224.99 -94.6 227.58 -94.01 230.16 C-93.75 231.33 -93.75 231.33 -93.49 232.52 C-92.62 236.34 -91.63 240.03 -90.36 243.74 C-88.79 248.3 -87.67 252.89 -86.63 257.59 C-86.34 258.87 -86.34 258.87 -86.04 260.16 C-85.43 262.84 -84.83 265.52 -84.23 268.19 C-83.62 270.89 -83.01 273.59 -82.39 276.29 C-82.01 277.97 -81.64 279.64 -81.26 281.31 C-80.38 285.39 -80.38 285.39 -78.85 289.25 C-77.91 284.97 -76.97 280.69 -76.03 276.41 C-75.71 274.96 -75.39 273.51 -75.07 272.06 C-74.61 269.94 -74.14 267.83 -73.68 265.72 C-73.52 265.02 -73.37 264.32 -73.21 263.59 C-71.91 257.59 -70.72 251.56 -69.58 245.53 C-68.85 242.25 -68.85 242.25 -67.91 239.49 C-66.42 234.93 -65.51 230.29 -64.54 225.6 C-64.33 224.58 -64.11 223.56 -63.89 222.51 C-63.21 219.26 -62.53 216 -61.85 212.75 C-60.96 208.47 -60.07 204.19 -59.17 199.91 C-58.96 198.93 -58.76 197.95 -58.55 196.95 C-57.57 192.25 -56.37 187.81 -54.85 183.25 C-54.01 179.73 -53.28 176.18 -52.54 172.63 C-52.33 171.61 -52.11 170.6 -51.89 169.55 C-51.21 166.3 -50.53 163.06 -49.85 159.82 C-49.18 156.58 -48.5 153.34 -47.82 150.1 C-47.39 148.08 -46.97 146.07 -46.55 144.06 C-45.76 140.26 -44.93 136.52 -43.86 132.79 C-42.47 127.9 -41.45 122.95 -40.39 117.98 C-39.92 115.75 -39.44 113.52 -38.96 111.29 C-38.22 107.82 -37.48 104.34 -36.75 100.87 C-34.27 89.23 -31.76 77.62 -28.81 66.1 C-26.93 58.5 -25.35 50.84 -23.73 43.19 C-23.21 40.73 -22.69 38.27 -22.16 35.81 C-21.84 34.3 -21.52 32.79 -21.2 31.28 C-20.26 26.88 -19.11 22.58 -17.85 18.25 C-17.54 16.89 -17.24 15.52 -16.96 14.14 C-16.81 13.45 -16.66 12.76 -16.5 12.05 C-16.19 10.63 -15.9 9.2 -15.62 7.78 C-15.15 5.7 -15.15 5.7 -13.85 2.25 C-9.49 -0.33 -4.91 -0.03 0 0 Z M60.15 77.25 C59.68 79.02 59.28 80.8 58.93 82.59 C58.72 83.63 58.51 84.68 58.29 85.76 C58.08 86.85 57.86 87.94 57.65 89.07 C57.22 91.22 56.8 93.37 56.36 95.52 C56.18 96.48 55.99 97.43 55.8 98.42 C55.15 101.25 55.15 101.25 54.19 104.08 C52.92 107.93 52.05 111.8 51.2 115.76 C51.03 116.56 50.85 117.36 50.67 118.18 C50.3 119.87 49.94 121.55 49.58 123.24 C49.02 125.81 48.46 128.38 47.89 130.96 C47.54 132.6 47.18 134.24 46.83 135.88 C46.66 136.65 46.49 137.41 46.31 138.2 C45.51 141.96 45.07 145.41 45.15 149.25 C61.97 149.32 78.79 149.38 95.61 149.41 C103.42 149.42 111.23 149.45 119.04 149.48 C125.86 149.51 132.68 149.53 139.49 149.54 C143.09 149.54 146.7 149.55 150.3 149.57 C178.5 150.37 178.5 150.37 203.15 138.25 C203.78 137.75 204.42 137.24 205.08 136.71 C209.22 133.02 211.39 128.42 213.15 123.25 C213.15 122.59 213.15 121.93 213.15 121.25 C213.81 121.25 214.47 121.25 215.15 121.25 C217.74 109.83 220.11 98.42 215.15 87.25 C214.49 87.25 213.83 87.25 213.15 87.25 C212.81 86.39 212.81 86.39 212.46 85.5 C209.02 79.61 203.35 78 197.15 76.25 C196.54 76.08 195.93 75.91 195.31 75.73 C192.97 75.22 190.8 75.05 188.41 74.94 C187.47 74.9 186.53 74.86 185.57 74.82 C184.05 74.76 184.05 74.76 182.5 74.7 C181.44 74.66 180.37 74.62 179.28 74.58 C167.34 74.14 155.41 74.07 143.47 74.05 C142.31 74.05 141.15 74.05 139.96 74.04 C133.89 74.03 127.81 74.02 121.73 74.01 C115.46 74.01 109.19 73.98 102.92 73.96 C98.07 73.94 93.23 73.93 88.38 73.93 C86.07 73.93 83.75 73.92 81.44 73.91 C78.23 73.89 75.02 73.89 71.81 73.9 C70.86 73.89 69.9 73.88 68.92 73.87 C68.05 73.88 67.18 73.88 66.29 73.89 C65.53 73.89 64.77 73.88 64 73.88 C61.73 74.11 61.73 74.11 60.15 77.25 Z M-233.85 80.25 C-235.06 81.79 -236.22 83.36 -237.35 84.94 C-238.07 85.94 -238.8 86.94 -239.54 87.98 C-241.87 91.25 -244.14 94.57 -246.42 97.88 C-249.43 102.26 -252.54 106.51 -255.84 110.68 C-258.57 114.17 -261.25 117.71 -263.92 121.25 C-264.44 121.95 -264.97 122.65 -265.51 123.37 C-268.71 127.66 -271.73 132.02 -274.64 136.52 C-275.85 138.25 -275.85 138.25 -278.29 140.63 C-281.59 144 -283.79 147.79 -286.21 151.83 C-287.85 154.25 -287.85 154.25 -290.85 156.25 C-291.86 157.92 -292.86 159.58 -293.85 161.25 C-294.9 162.64 -295.97 164.01 -297.04 165.38 C-299.85 168.94 -302.6 172.54 -305.29 176.19 C-305.97 177.11 -306.65 178.02 -307.35 178.97 C-309.04 181.08 -309.04 181.08 -308.85 183.25 C-274.53 183.25 -240.21 183.25 -204.85 183.25 C-205.62 177.7 -205.62 177.7 -206.75 172.28 C-206.92 171.59 -207.09 170.89 -207.26 170.18 C-207.45 169.45 -207.63 168.72 -207.82 167.98 C-208.01 167.21 -208.2 166.44 -208.39 165.64 C-208.8 164.02 -209.2 162.4 -209.61 160.78 C-210.23 158.33 -210.83 155.87 -211.44 153.41 C-211.84 151.83 -212.23 150.25 -212.63 148.66 C-212.9 147.58 -212.9 147.58 -213.17 146.47 C-214.23 142.26 -215.56 138.27 -217.13 134.23 C-218.32 131 -219.16 127.69 -220.01 124.35 C-220.2 123.63 -220.39 122.91 -220.58 122.16 C-221.18 119.88 -221.77 117.6 -222.35 115.32 C-225.73 102.17 -225.73 102.17 -229.85 89.25 C-230.85 86.25 -231.85 83.25 -232.85 80.25 C-233.18 80.25 -233.51 80.25 -233.85 80.25 Z " fill="#040404" transform="translate(566.8542938232422,60.74603271484375)"/>
<path d="M0 0 C0.89 -0 1.79 -0 2.71 -0 C5.73 -0.01 8.74 -0.01 11.76 -0 C13.91 -0 16.07 -0.01 18.22 -0.01 C24.09 -0.01 29.95 -0.01 35.82 -0.01 C41.94 -0 48.07 -0.01 54.2 -0.01 C64.49 -0.01 74.78 -0.01 85.07 -0 C96.98 0 108.89 0 120.8 -0.01 C131.01 -0.01 141.22 -0.01 151.43 -0.01 C157.54 -0.01 163.65 -0.01 169.75 -0.01 C175.49 -0.01 181.23 -0.01 186.97 -0 C189.08 -0 191.19 -0 193.3 -0.01 C196.17 -0.01 199.05 -0.01 201.92 0 C202.76 -0 203.61 -0 204.48 -0.01 C210.23 0.01 210.23 0.01 212.46 1.13 C212.15 5.94 211.7 9.94 209.73 14.35 C206.59 21.93 204.58 29.86 202.4 37.75 C201.74 40.1 201.09 42.45 200.43 44.79 C200.02 46.24 199.62 47.69 199.22 49.14 C197.88 53.92 196.23 58.49 194.46 63.13 C193.89 65.1 193.34 67.08 192.83 69.06 C191.57 74.02 191.57 74.02 190.46 75.13 C188.84 75.22 187.22 75.25 185.59 75.25 C184.54 75.25 183.49 75.25 182.4 75.25 C180.65 75.25 180.65 75.25 178.87 75.24 C177.04 75.24 177.04 75.24 175.18 75.24 C171.82 75.24 168.47 75.24 165.12 75.23 C161.62 75.22 158.11 75.22 154.61 75.22 C147.98 75.22 141.35 75.21 134.71 75.2 C127.16 75.19 119.61 75.18 112.06 75.18 C96.53 75.17 80.99 75.15 65.46 75.13 C65.33 75.94 65.19 76.74 65.06 77.58 C64.88 78.64 64.7 79.71 64.52 80.81 C64.35 81.87 64.17 82.93 63.99 84.01 C63.53 86.73 63.01 89.43 62.46 92.13 C61.8 92.13 61.14 92.13 60.46 92.13 C60.44 92.67 60.42 93.21 60.39 93.78 C59.78 103.28 57.68 112.49 55.7 121.78 C55.08 124.68 54.48 127.59 53.87 130.5 C53.48 132.38 53.08 134.25 52.69 136.13 C52.51 136.99 52.33 137.84 52.15 138.72 C51.04 143.88 49.69 148.91 48.12 153.95 C46.95 157.8 46.1 161.73 45.2 165.66 C44.46 168.13 44.46 168.13 42.46 170.13 C38.79 171.49 34.95 171.27 31.1 171.26 C29.99 171.26 29.99 171.26 28.87 171.26 C26.44 171.27 24.01 171.26 21.58 171.26 C19.88 171.26 18.18 171.26 16.49 171.26 C12.93 171.26 9.37 171.26 5.81 171.26 C1.27 171.25 -3.27 171.25 -7.81 171.26 C-11.32 171.26 -14.82 171.26 -18.33 171.26 C-20 171.26 -21.67 171.26 -23.35 171.26 C-31.8 171.27 -40.14 171.19 -48.54 170.13 C-49.46 166.47 -49.53 163.87 -48.71 160.21 C-48.5 159.26 -48.29 158.3 -48.08 157.32 C-47.85 156.3 -47.61 155.28 -47.37 154.23 C-47.14 153.16 -46.9 152.09 -46.66 150.99 C-46.16 148.73 -45.65 146.47 -45.14 144.21 C-44.36 140.8 -43.61 137.39 -42.85 133.97 C-40.59 123.82 -38.24 113.73 -35.49 103.7 C-33.39 95.76 -31.68 87.72 -29.89 79.71 C-29.38 77.42 -28.86 75.13 -28.35 72.84 C-28.19 72.15 -28.04 71.47 -27.88 70.76 C-27.24 67.88 -26.53 65.09 -25.57 62.29 C-24.12 57.84 -23.2 53.3 -22.23 48.72 C-22.01 47.73 -21.8 46.73 -21.58 45.71 C-20.9 42.53 -20.22 39.36 -19.54 36.19 C-18.86 33.02 -18.18 29.85 -17.5 26.68 C-17.08 24.72 -16.66 22.75 -16.24 20.78 C-13.26 6.9 -13.26 6.9 -10.54 1.13 C-7.26 -0.52 -3.61 -0.01 0 0 Z " fill="#050404" transform="translate(905.5411376953125,196.87301635742188)"/>
<path d="M0 0 C3.08 -0.29 5.96 -0.39 9.05 -0.36 C10 -0.36 10.95 -0.37 11.92 -0.37 C15.12 -0.37 18.32 -0.36 21.52 -0.34 C23.81 -0.34 26.1 -0.34 28.38 -0.34 C34.6 -0.34 40.83 -0.33 47.05 -0.3 C53.55 -0.29 60.04 -0.28 66.54 -0.28 C77.45 -0.27 88.36 -0.25 99.27 -0.23 C110.51 -0.2 121.75 -0.18 132.99 -0.16 C133.68 -0.16 134.37 -0.16 135.09 -0.16 C138.56 -0.16 142.03 -0.15 145.51 -0.15 C174.34 -0.12 203.17 -0.07 232 0 C233.16 3.94 232.61 6.26 231.45 10.23 C231.1 11.45 230.75 12.66 230.39 13.91 C230.11 14.86 230.11 14.86 229.82 15.83 C229.26 17.73 228.71 19.63 228.16 21.54 C225.22 31.59 225.22 31.59 223.48 36.02 C220.74 43.02 219.03 50.41 217.05 57.65 C212.28 74.72 212.28 74.72 209 78 C205.9 78.24 202.82 78.42 199.71 78.55 C198.77 78.6 197.82 78.64 196.84 78.68 C187.09 79.09 177.34 79.14 167.58 79.13 C165.64 79.13 163.7 79.13 161.77 79.13 C156.57 79.14 151.38 79.14 146.19 79.13 C140.72 79.13 135.26 79.13 129.79 79.14 C120.63 79.14 111.47 79.14 102.32 79.13 C91.74 79.12 81.17 79.13 70.6 79.13 C61.49 79.14 52.38 79.14 43.26 79.13 C37.83 79.13 32.41 79.13 26.98 79.14 C21.89 79.14 16.79 79.14 11.7 79.13 C9.84 79.13 7.97 79.13 6.11 79.13 C3.56 79.14 1.01 79.13 -1.54 79.13 C-2.27 79.13 -3 79.13 -3.75 79.13 C-8.89 79.11 -13.91 78.65 -19 78 C-19.14 73.09 -18.69 68.81 -17.57 64.04 C-17.43 63.4 -17.28 62.76 -17.12 62.1 C-16.81 60.77 -16.49 59.43 -16.17 58.09 C-15.69 56.07 -15.22 54.05 -14.75 52.03 C-12.24 41.3 -12.24 41.3 -10.49 37.02 C-7.73 30.21 -6.56 22.76 -4.98 15.6 C-4.53 13.59 -4.08 11.58 -3.62 9.57 C-3.36 8.38 -3.09 7.19 -2.82 5.97 C-2 3 -2 3 0 0 Z " fill="#E94A30" transform="translate(927,61)"/>
<path d="M0 0 C3.08 -0.29 5.96 -0.39 9.05 -0.36 C10 -0.36 10.95 -0.37 11.92 -0.37 C15.12 -0.37 18.32 -0.36 21.52 -0.34 C23.81 -0.34 26.1 -0.34 28.38 -0.34 C34.6 -0.34 40.83 -0.33 47.05 -0.3 C53.55 -0.29 60.04 -0.28 66.54 -0.28 C77.45 -0.27 88.36 -0.25 99.27 -0.23 C110.51 -0.2 121.75 -0.18 132.99 -0.16 C133.68 -0.16 134.37 -0.16 135.09 -0.16 C138.56 -0.16 142.03 -0.15 145.51 -0.15 C174.34 -0.12 203.17 -0.07 232 0 C233.16 3.94 232.61 6.26 231.45 10.23 C231.1 11.45 230.75 12.66 230.39 13.91 C230.11 14.86 230.11 14.86 229.82 15.83 C229.26 17.73 228.71 19.63 228.16 21.54 C225.22 31.59 225.22 31.59 223.49 36 C221.18 41.91 219.64 48.08 217.94 54.19 C217.24 56.68 216.54 59.18 215.84 61.67 C215.53 62.76 215.23 63.86 214.91 64.99 C214.08 67.74 213.11 70.35 212 73 C211.34 73 210.68 73 210 73 C210.42 65.08 212.24 57.93 214.56 50.38 C214.89 49.28 215.22 48.18 215.56 47.04 C216.37 44.36 217.18 41.68 218 39 C218.66 39 219.32 39 220 39 C220.33 36.36 220.66 33.72 221 31 C223.64 21.76 226.28 12.52 229 3 C154.09 3 79.18 3 2 3 C0.35 10.59 -1.3 18.18 -3 26 C-3.66 26 -4.32 26 -5 26 C-5.33 28.31 -5.66 30.62 -6 33 C-7.65 30.48 -8.03 29.25 -7.71 26.21 C-7.33 24.63 -7.33 24.63 -6.95 23.03 C-6.68 21.88 -6.42 20.73 -6.14 19.55 C-5.85 18.36 -5.55 17.17 -5.25 15.94 C-4.97 14.74 -4.69 13.54 -4.41 12.31 C-2.29 3.43 -2.29 3.43 0 0 Z " fill="#E5301C" transform="translate(927,61)"/>
<path d="M0 0 C1.6 4.04 0.39 7.68 -0.62 11.72 C-0.79 12.46 -0.97 13.21 -1.15 13.97 C-1.72 16.34 -2.3 18.7 -2.88 21.06 C-3.26 22.66 -3.64 24.25 -4.02 25.85 C-6.77 37.32 -6.77 37.32 -8 41 C66.25 41 140.5 41 217 41 C217 41.99 217 42.98 217 44 C203.18 44.76 189.42 45.15 175.58 45.13 C173.64 45.13 171.7 45.13 169.77 45.13 C164.57 45.14 159.38 45.14 154.19 45.13 C148.72 45.13 143.26 45.13 137.79 45.14 C128.63 45.14 119.47 45.14 110.32 45.13 C99.74 45.12 89.17 45.13 78.6 45.13 C69.49 45.14 60.38 45.14 51.26 45.13 C45.83 45.13 40.41 45.13 34.98 45.14 C29.89 45.14 24.79 45.14 19.7 45.13 C17.84 45.13 15.97 45.13 14.11 45.13 C11.56 45.14 9.01 45.13 6.46 45.13 C5.73 45.13 5 45.13 4.25 45.13 C-0.89 45.11 -5.91 44.65 -11 44 C-11.15 39.04 -10.67 34.72 -9.54 29.89 C-9.39 29.25 -9.24 28.6 -9.08 27.94 C-8.77 26.58 -8.44 25.23 -8.12 23.87 C-7.62 21.81 -7.14 19.74 -6.66 17.67 C-4.07 6.67 -4.07 6.67 -2 3 C-1.34 3 -0.68 3 0 3 C0 2.01 0 1.02 0 0 Z " fill="#E62F19" transform="translate(919,95)"/>
<path d="M0 0 C0.66 0 1.32 0 2 0 C1.45 6.69 0.13 12.67 -1.88 19.06 C-2.13 19.91 -2.39 20.76 -2.65 21.63 C-3.8 25.38 -5.01 29.08 -6.44 32.73 C-8.75 38.75 -10.34 44.99 -12.06 51.19 C-12.76 53.68 -13.46 56.18 -14.16 58.67 C-14.47 59.76 -14.77 60.86 -15.09 61.99 C-15.92 64.74 -16.89 67.35 -18 70 C-18.66 70 -19.32 70 -20 70 C-19.58 62.08 -17.76 54.93 -15.44 47.38 C-15.11 46.28 -14.78 45.18 -14.44 44.04 C-13.63 41.36 -12.82 38.68 -12 36 C-11.34 36 -10.68 36 -10 36 C-9.85 34.36 -9.85 34.36 -9.69 32.69 C-9.02 27.29 -7.48 22.2 -5.94 17 C-5.66 16.03 -5.37 15.07 -5.08 14.07 C-4.39 11.71 -3.7 9.36 -3 7 C-2.34 7 -1.68 7 -1 7 C-0.67 4.69 -0.34 2.38 0 0 Z " fill="#E13623" transform="translate(1157,64)"/>
<path d="M0 0 C0.49 1.49 0.49 1.49 1 3 C-15.91 4.05 -32.79 4.12 -49.72 4.07 C-53.26 4.06 -56.8 4.05 -60.34 4.05 C-67.23 4.04 -74.11 4.02 -81 4 C-81 3.67 -81 3.34 -81 3 C-79.95 2.91 -79.95 2.91 -78.88 2.82 C-77.97 2.73 -77.06 2.65 -76.12 2.56 C-75.22 2.48 -74.32 2.4 -73.38 2.32 C-70.99 2.13 -70.99 2.13 -69 1 C-66.82 0.88 -64.63 0.82 -62.44 0.79 C-61.77 0.78 -61.09 0.77 -60.4 0.76 C-58.17 0.73 -55.94 0.71 -53.71 0.68 C-52.17 0.66 -50.62 0.64 -49.08 0.62 C-45.01 0.57 -40.94 0.52 -36.88 0.47 C-32.73 0.42 -28.58 0.36 -24.43 0.31 C-16.29 0.2 -8.14 0.1 0 0 Z " fill="#EB1E0F" transform="translate(1135,136)"/>
<path d="M0 0 C1.28 3.64 0.71 6.16 -0.21 9.86 C-0.49 10.97 -0.76 12.09 -1.04 13.24 C-1.34 14.4 -1.63 15.56 -1.94 16.75 C-2.23 17.92 -2.52 19.1 -2.82 20.31 C-3.54 23.21 -4.26 26.1 -5 29 C-5.99 28.67 -6.98 28.34 -8 28 C-7.59 22.18 -6.56 16.65 -5.12 11 C-4.88 9.99 -4.88 9.99 -4.64 8.97 C-4.13 7.06 -4.13 7.06 -3 4 C-2.01 3.67 -1.02 3.34 0 3 C0 2.01 0 1.02 0 0 Z " fill="#E1361F" transform="translate(919,95)"/>
<path d="M0 0 C0.99 0.66 1.98 1.32 3 2 C1.68 8.27 0.36 14.54 -1 21 C-1.66 21 -2.32 21 -3 21 C-3.33 23.31 -3.66 25.62 -4 28 C-5.48 25.64 -6.03 24.37 -5.78 21.56 C-5.46 20.23 -5.46 20.23 -5.14 18.87 C-4.8 17.41 -4.8 17.41 -4.45 15.93 C-4.2 14.92 -3.95 13.91 -3.69 12.88 C-3.45 11.86 -3.21 10.85 -2.96 9.8 C-1.19 2.38 -1.19 2.38 0 0 Z " fill="#E9331C" transform="translate(925,66)"/>
<path d="M0 0 C0.66 0 1.32 0 2 0 C3.43 3.79 2.51 6.07 1.06 9.75 C0.68 10.73 0.3 11.72 -0.09 12.73 C-0.39 13.48 -0.69 14.23 -1 15 C-1.66 15 -2.32 15 -3 15 C-2.22 4.44 -2.22 4.44 0 0 Z " fill="#DF2314" transform="translate(1140,119)"/>
<path d="M0 0 C0.99 0 1.98 0 3 0 C2.37 5.05 0.87 9.3 -1 14 C-1.66 14 -2.32 14 -3 14 C-3.33 14.66 -3.66 15.32 -4 16 C-3.72 14.27 -3.42 12.54 -3.12 10.81 C-2.96 9.85 -2.8 8.89 -2.63 7.89 C-2.02 5.09 -1.14 2.63 0 0 Z " fill="#E22B1A" transform="translate(1150,87)"/>
<path d="M0 0 C1.83 3.11 2.08 3.66 1.19 7.38 C0.8 8.57 0.4 9.77 0 11 C-0.36 12.99 -0.71 14.99 -1 17 C-1.99 17.33 -2.98 17.66 -4 18 C-3.49 11.56 -2.27 6.04 0 0 Z " fill="#0D040D" transform="translate(512,245)"/>
<path d="M0 0 C1.38 3.77 0.6 6.45 -0.44 10.25 C-0.72 11.33 -1.01 12.41 -1.31 13.52 C-1.54 14.34 -1.76 15.16 -2 16 C-2.33 15.34 -2.66 14.68 -3 14 C-3.66 14 -4.32 14 -5 14 C-4.34 10.7 -3.68 7.4 -3 4 C-2.01 3.67 -1.02 3.34 0 3 C0 2.01 0 1.02 0 0 Z " fill="#E92A18" transform="translate(919,95)"/>
<path d="M0 0 C0.66 0 1.32 0 2 0 C2.33 2.97 2.66 5.94 3 9 C2.01 9.33 1.02 9.66 0 10 C-0.33 10.99 -0.66 11.98 -1 13 C-1.33 13 -1.66 13 -2 13 C-1.86 11.58 -1.71 10.17 -1.56 8.75 C-1.48 7.96 -1.4 7.17 -1.32 6.36 C-1.02 4.18 -0.58 2.12 0 0 Z " fill="#150814" transform="translate(494,323)"/>
<path d="M0 0 C0.66 0 1.32 0 2 0 C1.58 6.2 0.4 11.27 -2 17 C-2.33 17 -2.66 17 -3 17 C-2.49 11.15 -1.55 5.67 0 0 Z " fill="#140814" transform="translate(864,326)"/>
<path d="M0 0 C0.63 1.84 0.63 1.84 1 4 C-1.95 7.47 -5.4 10.22 -9 13 C-7.51 9.72 -5.61 7.07 -3.38 4.25 C-2.74 3.45 -2.11 2.65 -1.46 1.83 C-0.98 1.22 -0.5 0.62 0 0 Z " fill="#140614" transform="translate(72,335)"/>
<path d="M0 0 C0.66 0.33 1.32 0.66 2 1 C-1.63 5.62 -5.26 10.24 -9 15 C-9.33 14.34 -9.66 13.68 -10 13 C-5.05 6.56 -5.05 6.56 0 0 Z " fill="#180815" transform="translate(215,156)"/>
<path d="M0 0 C0.33 0.99 0.66 1.98 1 3 C-1.97 6.3 -4.94 9.6 -8 13 C-8.66 12.67 -9.32 12.34 -10 12 C-3.85 3.55 -3.85 3.55 0 0 Z " fill="#0C020E" transform="translate(59,352)"/>
<path d="M0 0 C0.66 0.99 1.32 1.98 2 3 C-0.97 5.97 -3.94 8.94 -7 12 C-7 8.2 -5.86 7.22 -3.5 4.31 C-2.85 3.5 -2.2 2.7 -1.53 1.86 C-1.03 1.25 -0.52 0.63 0 0 Z " fill="#140512" transform="translate(137,254)"/>
<path d="M0 0 C0.66 0 1.32 0 2 0 C1.89 1.44 1.76 2.88 1.62 4.31 C1.56 5.11 1.49 5.91 1.41 6.74 C1 9 1 9 -1 12 C-1.66 11.34 -2.32 10.68 -3 10 C-3 9.01 -3 8.02 -3 7 C-2.34 7 -1.68 7 -1 7 C-0.67 4.69 -0.34 2.38 0 0 Z " fill="#DA2B20" transform="translate(1157,64)"/>
<path d="M0 0 C0.66 0 1.32 0 2 0 C2.33 2.31 2.66 4.62 3 7 C1.02 7.99 1.02 7.99 -1 9 C-0.67 6.03 -0.34 3.06 0 0 Z " fill="#0E030C" transform="translate(496,313)"/>
<path d="M0 0 C0.66 0 1.32 0 2 0 C1.86 1.44 1.71 2.88 1.56 4.31 C1.48 5.11 1.4 5.91 1.32 6.74 C1 9 1 9 0 12 C-0.66 12 -1.32 12 -2 12 C-1 3.43 -1 3.43 0 0 Z " fill="#140710" transform="translate(871,181)"/>
<path d="M0 0 C0 3.74 -1.02 4.68 -3.31 7.56 C-3.93 8.35 -4.54 9.13 -5.18 9.94 C-7 12 -7 12 -10 14 C-8.44 10.48 -6.31 7.73 -3.88 4.75 C-3.15 3.86 -2.43 2.97 -1.68 2.05 C-0.85 1.03 -0.85 1.03 0 0 Z " fill="#1A0819" transform="translate(232,135)"/>
<path d="M0 0 C0 3.8 -1.14 4.78 -3.5 7.69 C-4.15 8.5 -4.8 9.3 -5.47 10.14 C-5.97 10.75 -6.48 11.37 -7 12 C-7.66 11.67 -8.32 11.34 -9 11 C-7.69 9.35 -6.38 7.71 -5.06 6.06 C-4.33 5.15 -3.6 4.23 -2.85 3.29 C-1 1 -1 1 0 0 Z " fill="#1C0D19" transform="translate(82,323)"/>
<path d="M0 0 C0 4.03 -1.61 5.84 -4 9 C-4.66 9 -5.32 9 -6 9 C-6 9.66 -6 10.32 -6 11 C-6.66 10.67 -7.32 10.34 -8 10 C-7.05 8.52 -6.09 7.04 -5.12 5.56 C-4.32 4.33 -4.32 4.33 -3.51 3.07 C-2 1 -2 1 0 0 Z " fill="#140611" transform="translate(241,124)"/>
<path d="M0 0 C0 3.78 -1 4.46 -3.5 7.19 C-4.15 7.9 -4.8 8.62 -5.47 9.36 C-5.97 9.9 -6.48 10.44 -7 11 C-7 7.65 -6.54 6.98 -4.62 4.38 C-4.18 3.76 -3.74 3.15 -3.29 2.52 C-2 1 -2 1 0 0 Z " fill="#11060D" transform="translate(253,109)"/>
<path d="M0 0 C0.66 0.33 1.32 0.66 2 1 C-0.31 3.64 -2.62 6.28 -5 9 C-5.66 8.67 -6.32 8.34 -7 8 C-6.21 6.85 -5.42 5.71 -4.62 4.56 C-4.18 3.92 -3.74 3.29 -3.29 2.63 C-2 1 -2 1 0 0 Z " fill="#0D030C" transform="translate(290,63)"/>
<path d="M0 0 C0.66 0 1.32 0 2 0 C1.67 2.97 1.34 5.94 1 9 C0.34 9 -0.32 9 -1 9 C-0.67 6.03 -0.34 3.06 0 0 Z " fill="#0F050F" transform="translate(866,316)"/>
<path d="M0 0 C0.66 0 1.32 0 2 0 C1.67 2.64 1.34 5.28 1 8 C0.67 7.34 0.34 6.68 0 6 C-0.66 6 -1.32 6 -2 6 C-1.34 4.02 -0.68 2.04 0 0 Z " fill="#E02D13" transform="translate(916,103)"/>
<path d="M0 0 C0.66 0 1.32 0 2 0 C3 3 3 3 1.56 6.19 C0.79 7.58 0.79 7.58 0 9 C-0.33 9 -0.66 9 -1 9 C-0.67 6.03 -0.34 3.06 0 0 Z " fill="#120510" transform="translate(520,207)"/>
<path d="M0 0 C0.33 0 0.66 0 1 0 C1.12 5.75 1.12 5.75 0 8 C-0.66 8 -1.32 8 -2 8 C-2 6.02 -2 4.04 -2 2 C-1.34 2 -0.68 2 0 2 C0 1.34 0 0.68 0 0 Z " fill="#D5291C" transform="translate(1139,126)"/>
<path d="M0 0 C0.33 0.99 0.66 1.98 1 3 C-0.21 4.82 -0.21 4.82 -1.94 6.69 C-2.5 7.31 -3.07 7.93 -3.65 8.57 C-4.1 9.04 -4.54 9.52 -5 10 C-5.33 9.34 -5.66 8.68 -6 8 C-4.02 5.36 -2.04 2.72 0 0 Z " fill="#16050C" transform="translate(261,98)"/>
<path d="M0 0 C0.66 0 1.32 0 2 0 C1.67 2.64 1.34 5.28 1 8 C0.34 8 -0.32 8 -1 8 C-0.67 5.36 -0.34 2.72 0 0 Z " fill="#130411" transform="translate(956,330)"/>
<path d="M0 0 C0.66 0 1.32 0 2 0 C2.33 1.98 2.66 3.96 3 6 C2.01 6 1.02 6 0 6 C-1.25 3.51 -0.78 2.59 0 0 Z " fill="#0B010B" transform="translate(507,264)"/>
</svg>
